<mxfile host="65bd71144e">
    <diagram id="jvKagsyGKAKOTue5fjl5" name="페이지-1">
        <mxGraphModel dx="2408" dy="901" grid="1" gridSize="10" guides="1" tooltips="1" connect="1" arrows="1" fold="1" page="1" pageScale="1" pageWidth="1169" pageHeight="827" math="0" shadow="0">
            <root>
                <mxCell id="0"/>
                <mxCell id="1" parent="0"/>
                <mxCell id="2" value="" style="rounded=0;whiteSpace=wrap;html=1;fillColor=none;strokeWidth=2;fontSize=16;fontStyle=1" vertex="1" parent="1">
                    <mxGeometry x="500" y="240" width="600" height="200" as="geometry"/>
                </mxCell>
                <mxCell id="3" value="FoxtrotGPS" style="whiteSpace=wrap;html=1;strokeWidth=2;fontSize=16;fontStyle=1" vertex="1" parent="1">
                    <mxGeometry x="920" y="320" width="160" height="100" as="geometry"/>
                </mxCell>
                <mxCell id="4" style="edgeStyle=orthogonalEdgeStyle;rounded=0;orthogonalLoop=1;jettySize=auto;html=1;entryX=0.5;entryY=0;entryDx=0;entryDy=0;strokeWidth=2;fontSize=16;fontStyle=1" edge="1" parent="1" source="5" target="14">
                    <mxGeometry relative="1" as="geometry"/>
                </mxCell>
                <mxCell id="5" value="RCMS&lt;br style=&quot;font-size: 16px&quot;&gt;&lt;font style=&quot;font-size: 14px ; font-weight: normal&quot;&gt;(Remote Controlling &amp;amp; Monitoring System)&lt;/font&gt;" style="whiteSpace=wrap;html=1;strokeWidth=2;fontSize=16;fontStyle=1" vertex="1" parent="1">
                    <mxGeometry x="720" y="260" width="160" height="160" as="geometry"/>
                </mxCell>
                <mxCell id="64" style="edgeStyle=orthogonalEdgeStyle;rounded=0;orthogonalLoop=1;jettySize=auto;html=1;entryX=0.5;entryY=0;entryDx=0;entryDy=0;fontSize=16;strokeWidth=2;" edge="1" parent="1" source="7" target="63">
                    <mxGeometry relative="1" as="geometry"/>
                </mxCell>
                <mxCell id="7" value="ASCEN GPS" style="whiteSpace=wrap;html=1;strokeWidth=2;fontSize=16;fontStyle=1" vertex="1" parent="1">
                    <mxGeometry x="940" y="80" width="120" height="60" as="geometry"/>
                </mxCell>
                <mxCell id="8" value="Wireless Router" style="whiteSpace=wrap;html=1;strokeWidth=2;fontSize=16;fontStyle=1" vertex="1" parent="1">
                    <mxGeometry x="360" y="40" width="160" height="160" as="geometry"/>
                </mxCell>
                <mxCell id="60" style="edgeStyle=orthogonalEdgeStyle;rounded=0;orthogonalLoop=1;jettySize=auto;html=1;entryX=0.5;entryY=0;entryDx=0;entryDy=0;strokeWidth=2;fontSize=16;fontStyle=1" edge="1" parent="1" source="14" target="17">
                    <mxGeometry relative="1" as="geometry"/>
                </mxCell>
                <mxCell id="61" style="edgeStyle=orthogonalEdgeStyle;rounded=0;orthogonalLoop=1;jettySize=auto;html=1;entryX=0.5;entryY=0;entryDx=0;entryDy=0;strokeWidth=2;fontSize=16;fontStyle=1" edge="1" parent="1" source="14" target="40">
                    <mxGeometry relative="1" as="geometry">
                        <Array as="points">
                            <mxPoint x="720" y="620"/>
                            <mxPoint x="780" y="620"/>
                        </Array>
                    </mxGeometry>
                </mxCell>
                <mxCell id="14" value="MCU" style="whiteSpace=wrap;html=1;strokeWidth=2;fontSize=16;fontStyle=1" vertex="1" parent="1">
                    <mxGeometry x="640" y="520" width="160" height="80" as="geometry"/>
                </mxCell>
                <mxCell id="16" style="edgeStyle=orthogonalEdgeStyle;rounded=0;orthogonalLoop=1;jettySize=auto;html=1;entryX=0.5;entryY=0;entryDx=0;entryDy=0;strokeWidth=2;fontSize=16;fontStyle=1" edge="1" parent="1" source="17" target="18">
                    <mxGeometry relative="1" as="geometry"/>
                </mxCell>
                <mxCell id="17" value="TB6600" style="whiteSpace=wrap;html=1;strokeWidth=2;fontSize=16;fontStyle=1" vertex="1" parent="1">
                    <mxGeometry x="640" y="640" width="80" height="65" as="geometry"/>
                </mxCell>
                <mxCell id="18" value="Stepper&lt;br style=&quot;font-size: 16px;&quot;&gt;Motor&lt;br style=&quot;font-size: 16px;&quot;&gt;(drive)" style="ellipse;whiteSpace=wrap;html=1;strokeWidth=2;fontSize=16;fontStyle=1" vertex="1" parent="1">
                    <mxGeometry x="640" y="730" width="80" height="80" as="geometry"/>
                </mxCell>
                <mxCell id="22" style="edgeStyle=orthogonalEdgeStyle;rounded=0;orthogonalLoop=1;jettySize=auto;html=1;entryX=0;entryY=0.5;entryDx=0;entryDy=0;strokeWidth=2;fontSize=16;fontStyle=1" edge="1" parent="1" source="23" target="14">
                    <mxGeometry relative="1" as="geometry">
                        <Array as="points">
                            <mxPoint x="590" y="560"/>
                        </Array>
                    </mxGeometry>
                </mxCell>
                <mxCell id="23" value="IR/UV &lt;br style=&quot;font-size: 16px;&quot;&gt;Sensor" style="whiteSpace=wrap;html=1;strokeWidth=2;fontSize=16;fontStyle=1" vertex="1" parent="1">
                    <mxGeometry x="560" y="720" width="60" height="80" as="geometry"/>
                </mxCell>
                <mxCell id="26" value="ROS" style="whiteSpace=wrap;html=1;strokeWidth=2;fontSize=16;fontStyle=1" vertex="1" parent="1">
                    <mxGeometry x="520" y="260" width="160" height="160" as="geometry"/>
                </mxCell>
                <mxCell id="27" style="edgeStyle=orthogonalEdgeStyle;rounded=0;orthogonalLoop=1;jettySize=auto;html=1;entryX=1;entryY=0.5;entryDx=0;entryDy=0;strokeWidth=2;fontSize=16;fontStyle=1" edge="1" parent="1" source="28" target="14">
                    <mxGeometry relative="1" as="geometry">
                        <Array as="points">
                            <mxPoint x="880" y="560"/>
                        </Array>
                    </mxGeometry>
                </mxCell>
                <mxCell id="28" value="Ultrasonic&lt;br style=&quot;font-size: 16px;&quot;&gt;Sensor" style="whiteSpace=wrap;html=1;strokeWidth=2;fontSize=16;fontStyle=1" vertex="1" parent="1">
                    <mxGeometry x="840" y="720" width="80" height="40" as="geometry"/>
                </mxCell>
                <mxCell id="29" style="edgeStyle=orthogonalEdgeStyle;rounded=0;orthogonalLoop=1;jettySize=auto;html=1;entryX=0.5;entryY=1;entryDx=0;entryDy=0;strokeWidth=2;fontSize=16;fontStyle=1" edge="1" parent="1" source="30" target="26">
                    <mxGeometry relative="1" as="geometry"/>
                </mxCell>
                <mxCell id="30" value="YDLidar X4" style="whiteSpace=wrap;html=1;strokeWidth=2;fontSize=16;fontStyle=1" vertex="1" parent="1">
                    <mxGeometry x="360" y="580" width="160" height="160" as="geometry"/>
                </mxCell>
                <mxCell id="31" value="RDP" style="whiteSpace=wrap;html=1;strokeWidth=2;fontSize=16;fontStyle=1" vertex="1" parent="1">
                    <mxGeometry x="40" y="320" width="200" height="120" as="geometry"/>
                </mxCell>
                <mxCell id="32" value="" style="shape=flexArrow;endArrow=classic;startArrow=classic;html=1;entryX=0;entryY=0.5;entryDx=0;entryDy=0;exitX=0.5;exitY=0;exitDx=0;exitDy=0;strokeWidth=2;fontSize=16;fontStyle=1" edge="1" parent="1" source="31" target="8">
                    <mxGeometry width="100" height="100" relative="1" as="geometry">
                        <mxPoint x="320" y="279.9999999999998" as="sourcePoint"/>
                        <mxPoint x="520" y="110" as="targetPoint"/>
                        <Array as="points">
                            <mxPoint x="140" y="120"/>
                        </Array>
                    </mxGeometry>
                </mxCell>
                <mxCell id="33" value="" style="shape=flexArrow;endArrow=classic;startArrow=classic;html=1;exitX=1;exitY=0.5;exitDx=0;exitDy=0;entryX=0.5;entryY=0;entryDx=0;entryDy=0;strokeWidth=2;fontSize=16;fontStyle=1" edge="1" parent="1" source="8" target="2">
                    <mxGeometry width="100" height="100" relative="1" as="geometry">
                        <mxPoint x="989.9999999999995" y="190" as="sourcePoint"/>
                        <mxPoint x="1089.9999999999995" y="90" as="targetPoint"/>
                        <Array as="points">
                            <mxPoint x="800" y="120"/>
                        </Array>
                    </mxGeometry>
                </mxCell>
                <mxCell id="34" style="edgeStyle=orthogonalEdgeStyle;rounded=0;orthogonalLoop=1;jettySize=auto;html=1;entryX=0.75;entryY=1;entryDx=0;entryDy=0;strokeWidth=2;fontSize=16;fontStyle=1" edge="1" parent="1" source="35" target="5">
                    <mxGeometry relative="1" as="geometry">
                        <Array as="points">
                            <mxPoint x="1040" y="650"/>
                            <mxPoint x="1040" y="500"/>
                            <mxPoint x="840" y="500"/>
                        </Array>
                    </mxGeometry>
                </mxCell>
                <mxCell id="35" value="BarCode Reader" style="whiteSpace=wrap;html=1;strokeWidth=2;fontSize=16;fontStyle=1" vertex="1" parent="1">
                    <mxGeometry x="1000" y="600" width="80" height="160" as="geometry"/>
                </mxCell>
                <mxCell id="39" style="edgeStyle=orthogonalEdgeStyle;rounded=0;orthogonalLoop=1;jettySize=auto;html=1;strokeWidth=2;fontSize=16;fontStyle=1" edge="1" parent="1" source="40" target="41">
                    <mxGeometry relative="1" as="geometry"/>
                </mxCell>
                <mxCell id="40" value="&lt;font style=&quot;font-size: 16px;&quot;&gt;LV8729&lt;/font&gt;" style="whiteSpace=wrap;html=1;strokeWidth=2;fontSize=16;fontStyle=1" vertex="1" parent="1">
                    <mxGeometry x="750" y="640" width="60" height="40" as="geometry"/>
                </mxCell>
                <mxCell id="41" value="Stepper&lt;br style=&quot;font-size: 16px;&quot;&gt;Motor&lt;br style=&quot;font-size: 16px;&quot;&gt;(Operate)" style="ellipse;whiteSpace=wrap;html=1;strokeWidth=2;fontSize=16;fontStyle=1" vertex="1" parent="1">
                    <mxGeometry x="740" y="730" width="80" height="80" as="geometry"/>
                </mxCell>
                <mxCell id="62" value="" style="endArrow=classic;startArrow=classic;html=1;entryX=0;entryY=0.5;entryDx=0;entryDy=0;exitX=1;exitY=0.5;exitDx=0;exitDy=0;strokeWidth=2;fontSize=16;fontStyle=1" edge="1" parent="1" source="26" target="5">
                    <mxGeometry width="50" height="50" relative="1" as="geometry">
                        <mxPoint x="370" y="410" as="sourcePoint"/>
                        <mxPoint x="420" y="360" as="targetPoint"/>
                    </mxGeometry>
                </mxCell>
                <mxCell id="65" style="edgeStyle=orthogonalEdgeStyle;rounded=0;orthogonalLoop=1;jettySize=auto;html=1;entryX=0.5;entryY=0;entryDx=0;entryDy=0;fontSize=16;strokeWidth=2;" edge="1" parent="1" source="63" target="3">
                    <mxGeometry relative="1" as="geometry"/>
                </mxCell>
                <mxCell id="63" value="gpsd" style="whiteSpace=wrap;html=1;fontSize=16;strokeWidth=2;" vertex="1" parent="1">
                    <mxGeometry x="950" y="260" width="100" height="40" as="geometry"/>
                </mxCell>
            </root>
        </mxGraphModel>
    </diagram>
</mxfile>